<svg width="96" height="22" viewBox="0 0 96 22" fill="none" xmlns="http://www.w3.org/2000/svg">
<path d="M33.2732 9.96252V9.93071C35.4728 9.51944 37.2638 7.96979 37.2638 5.02841C37.2638 1.64471 35.41 0 31.0735 0H26.1087H25.2915H23.7259H22.9087H21.3431H20.5259V0.822544V19.9879V20.8104H21.3431H22.9087H23.7259H25.2915H26.1087H31.9848C36.1328 20.8104 38.3324 18.7863 38.3324 15.1178C38.3324 11.3857 35.6617 10.1523 33.2732 9.96252ZM26.1087 0.758918H31.0735C34.8757 0.758918 36.4469 2.05559 36.4469 5.12346C36.4469 8.19133 34.1845 9.67774 31.1676 9.67774H26.1087V0.822544V0.758918ZM21.3435 19.9879V0.822544H22.9091V19.9879H21.3435ZM23.7263 19.9879V0.822544H25.2919V19.9879H23.7263ZM31.9536 20.083H26.1087V19.9879V10.4052H31.3249C35.1586 10.4052 37.4839 11.6387 37.4839 15.086C37.4839 18.5019 35.5988 20.083 31.9536 20.083Z" fill="#C49955"/>
<path d="M52.0697 11.0377C55.5577 10.4685 56.8144 8.41249 56.8144 5.47111C56.8144 2.40362 55.149 0 50.5297 0H45.868H45.0302H43.4852H42.668H41.1024H40.2852V0.822544V19.9879V20.8104H41.1024H42.668H43.4852H45.0302H45.6913H45.8475V11.1641H51.2209L57.191 20.8104H58.1339L52.0693 11.1009V11.0377H52.0697ZM41.1032 19.9879V0.822544H42.6687V19.9879H41.1032ZM43.4856 19.9879V0.822544H45.0306V19.9879H43.4856ZM50.5925 10.4999H45.8478V0.822544H45.8684V0.758918H50.4984C54.6464 0.758918 55.9975 2.75127 55.9975 5.47111C55.9975 8.19133 54.772 10.4999 50.5925 10.4999Z" fill="#C49955"/>
<path d="M76.0792 13.8219C76.0792 18.1105 74.2051 19.9741 70.8905 20.3091C67.5685 19.9779 65.6682 18.1102 65.6682 13.8219V0.824461H65.669V0.00191646H65.6682V0H64.8491V0.00191646H63.2892V0H62.4701V0.00191646H60.9064V0H60.0873V0.00191646H60.0869V0.824461H60.0873V13.8859C60.0873 17.1351 61.232 19.2098 63.2934 20.2528C64.1012 20.6594 65.0517 20.9116 66.1252 21.0094L69.2487 21.0584L69.6676 21.0661C70.0903 21.0661 70.4978 21.0473 70.887 21.0098C71.9568 20.9082 72.8921 20.6594 73.6815 20.2604C75.7242 19.2213 76.8016 17.1466 76.8016 13.856V0H76.0795V13.8219H76.0792ZM60.9061 13.8219V0.824461H62.4697V13.8859C62.4697 17.1389 63.6183 19.2098 65.6793 20.2528C62.6346 19.8009 60.9061 17.9108 60.9061 13.8219ZM63.2892 13.8219V0.824461H64.8491V13.8859C64.8491 17.1351 65.9938 19.2098 68.0552 20.2528C65.0136 19.797 63.2892 17.9108 63.2892 13.8219Z" fill="#C49955"/>
<path d="M95.4681 0.000383292H89.902V0H89.0848V0.000383292H85.1368V0H84.3195V0.000383292H78.7534V0.760834H84.3195V20.8104H84.4863H85.1368H89.0848H89.902V19.9879V0.760834H95.4681V0.000383292ZM85.1368 0.760834H86.7031V19.9879H85.1368V0.760834ZM89.0848 19.9879H87.4884V0.760834H89.0848V19.9879Z" fill="#C49955"/>
<path d="M14.9995 0H4.71078H4.51922V4.95328L4.52075 5.00733C4.55426 5.61676 4.45677 5.69457 3.82194 6.20166C2.27161 7.44046 -0.0521727 9.29789 0.00114247 19.9883H0V20.8104H0.00952057H0.00990139H3.37333H3.37371H6.73713H6.73751H14.183H14.9998L14.9995 0ZM0.823339 19.9883C0.769643 9.69843 2.90682 7.9901 4.333 6.85019C4.99754 6.31933 5.39892 5.99852 5.34256 4.9736L5.3418 0.822161H7.88265V4.95673L7.88455 5.00694C7.91768 5.61638 7.82019 5.69418 7.18536 6.20166C5.63427 7.44123 3.31125 9.29866 3.36457 19.9883H0.823339ZM4.18715 19.9883C4.13307 9.6992 6.27025 7.99049 7.69643 6.85019C8.36096 6.31933 8.76235 5.99852 8.70637 4.96976L8.70523 0.822161H11.2461V4.95673L11.248 5.00694C11.2815 5.61599 11.184 5.6938 10.5488 6.20128C8.99846 7.44046 6.67468 9.29751 6.72837 19.9875H4.18715V19.9883ZM7.55057 19.9883C7.49649 9.69882 9.63405 7.99049 11.0614 6.84981C11.7251 6.31895 12.1262 5.99813 12.0698 4.97015L12.0687 0.822544H14.1826V19.9883H7.55057Z" fill="#C49955"/>
</svg>
