<svg width="30" height="30" viewBox="0 0 30 30" fill="none" xmlns="http://www.w3.org/2000/svg">
<g clip-path="url(#clip0_3_30)">
<path d="M15 0C6.72938 0 0 6.72938 0 15C0 23.2706 6.72938 30 15 30C23.2706 30 30 23.2706 30 15C30 6.72938 23.2706 0 15 0ZM15 28.125C7.7625 28.125 1.875 22.2375 1.875 15C1.875 7.7625 7.7625 1.875 15 1.875C22.2375 1.875 28.125 7.7625 28.125 15C28.125 22.2375 22.2375 28.125 15 28.125Z" fill="#C10000"/>
<path d="M15.9375 6.5625H14.0625V19.6875H15.9375V6.5625Z" fill="#C10000"/>
<path d="M15.9375 21.5625H14.0625V23.4375H15.9375V21.5625Z" fill="#C10000"/>
</g>
<defs>
<clipPath id="clip0_3_30">
<rect width="30" height="30" fill="white"/>
</clipPath>
</defs>
</svg>
