<svg width="20" height="20" viewBox="0 0 20 20" fill="none" xmlns="http://www.w3.org/2000/svg">
<g clip-path="url(#clip0_54_573)">
<path d="M19.7998 0.0228063C19.7239 -0.0076021 19.6391 -0.0076021 19.5632 0.0228063L19.5638 0.0237615L0.200495 7.67935C0.0372684 7.74478 -0.0420163 7.93014 0.0234572 8.09337C0.0543034 8.1703 0.113926 8.23219 0.189669 8.26587L8.18182 11.8187L11.7347 19.8109C11.7857 19.9258 11.8996 19.9999 12.0254 20H12.0321C12.1605 19.9974 12.2747 19.9179 12.3218 19.7984L19.9771 0.436742C20.0424 0.273476 19.9631 0.0881604 19.7998 0.0228063ZM12.0085 18.8604L8.71393 11.4481C8.68193 11.3762 8.62441 11.3186 8.55249 11.2866L1.14017 7.99203L19.1145 0.886022L12.0085 18.8604Z" fill="black"/>
</g>
<defs>
<clipPath id="clip0_54_573">
<rect width="20" height="20" fill="white"/>
</clipPath>
</defs>
</svg>
