<svg width="20" height="20" viewBox="0 0 20 20" fill="none" xmlns="http://www.w3.org/2000/svg">
<path d="M9.9967 0C5.92459 0 2.61182 3.31277 2.61182 7.38488C2.61182 8.72545 3.21303 10.1672 3.23823 10.2281C3.43241 10.689 3.81555 11.4049 4.09183 11.8245L9.15525 19.4965C9.36246 19.811 9.66915 19.9913 9.9967 19.9913C10.3242 19.9913 10.6309 19.811 10.8381 19.497L15.902 11.8245C16.1787 11.4049 16.5614 10.689 16.7556 10.2281C16.7808 10.1677 17.3816 8.72589 17.3816 7.38488C17.3816 3.31277 14.0688 0 9.9967 0ZM15.9546 9.89096C15.7812 10.3041 15.4246 10.97 15.1765 11.3462L10.1127 19.0187C10.0128 19.1703 9.98106 19.1703 9.88114 19.0187L4.81729 11.3462C4.56924 10.97 4.2126 10.3036 4.03927 9.89053C4.03188 9.87272 3.48063 8.54561 3.48063 7.38488C3.48063 3.79192 6.40373 0.86881 9.9967 0.86881C13.5897 0.86881 16.5128 3.79192 16.5128 7.38488C16.5128 8.54735 15.9602 9.87793 15.9546 9.89096Z" fill="black"/>
<path d="M9.99656 3.47562C7.84061 3.47562 6.08691 5.22974 6.08691 7.38526C6.08691 9.54078 7.84061 11.2949 9.99656 11.2949C12.1525 11.2949 13.9062 9.54078 13.9062 7.38526C13.9062 5.22974 12.1525 3.47562 9.99656 3.47562ZM9.99656 10.4261C8.32019 10.4261 6.95572 9.06206 6.95572 7.38526C6.95572 5.70846 8.32019 4.34443 9.99656 4.34443C11.6729 4.34443 13.0374 5.70846 13.0374 7.38526C13.0374 9.06206 11.6729 10.4261 9.99656 10.4261Z" fill="black"/>
</svg>
