<svg width="20" height="20" viewBox="0 0 20 20" fill="none" xmlns="http://www.w3.org/2000/svg">
<path d="M18.2419 2.38281H1.75748C1.48689 2.38281 1.23357 2.44934 1.00439 2.55898L9.96061 11.5152L11.968 9.58602C11.968 9.58602 11.9681 9.58582 11.9682 9.58574C11.9682 9.58566 11.9684 9.58559 11.9684 9.58559L18.9952 2.55914C18.766 2.44941 18.5125 2.38281 18.2419 2.38281Z" fill="#222222"/>
<path d="M19.824 3.38776L13.2114 10L19.8238 16.6124C19.9335 16.3832 20 16.1299 20 15.8593V4.14057C20 3.87014 19.9336 3.61686 19.824 3.38776Z" fill="#222222"/>
<path d="M0.176172 3.38757C0.0665234 3.61675 0 3.87007 0 4.14066V15.8594C0 16.1298 0.0664453 16.3832 0.176016 16.6123L6.78863 10L0.176172 3.38757Z" fill="#222222"/>
<path d="M12.3828 10.8287L10.3752 12.7581C10.2607 12.8726 10.1108 12.9298 9.96092 12.9298C9.81104 12.9298 9.66107 12.8726 9.54666 12.7581L7.61713 10.8286L1.00439 17.4409C1.23361 17.5506 1.48709 17.6172 1.75775 17.6172H18.2421C18.5127 17.6172 18.766 17.5507 18.9952 17.4411L12.3828 10.8287Z" fill="#222222"/>
</svg>
